<?xml version="1.0" encoding="utf-8"?>
<!-- Generator: Adobe Illustrator 16.2.1, SVG Export Plug-In . SVG Version: 6.00 Build 0)  -->
<!DOCTYPE svg PUBLIC "-//W3C//DTD SVG 1.1//EN" "http://www.w3.org/Graphics/SVG/1.1/DTD/svg11.dtd">
<svg version="1.1" xmlns="http://www.w3.org/2000/svg" xmlns:xlink="http://www.w3.org/1999/xlink" x="0px" y="0px"
	 width="371.27px" height="117.801px" viewBox="0 0 371.27 117.801" enable-background="new 0 0 371.27 117.801"
	 xml:space="preserve">
<g id="Layer_1">
	<g>
		<g>
			<rect x="0.001" fill="#92C83E" width="370.904" height="29.451"/>
		</g>
		<g>
			<rect x="0.122" y="29.451" fill="#75A331" width="370.902" height="29.451"/>
		</g>
		<rect x="0.365" y="58.902" fill="#4C7232" width="370.903" height="29.45"/>
		<rect x="0.001" y="88.354" fill="#1A3A00" width="370.904" height="29.447"/>
	</g>
</g>
<g id="Layer_2">
	<g>
		<path fill="#FFFFFF" d="M167.627,20.734h-1.516l-6.242-9.586h-0.062c0.083,1.125,0.125,2.156,0.125,3.094v6.492h-1.227V9.312h1.5
			l6.227,9.547h0.062c-0.011-0.141-0.034-0.592-0.07-1.355c-0.037-0.763-0.05-1.309-0.039-1.637V9.312h1.242V20.734z"/>
		<path fill="#FFFFFF" d="M177.963,16.445c0,1.396-0.352,2.486-1.055,3.27c-0.703,0.784-1.675,1.176-2.914,1.176
			c-0.766,0-1.445-0.18-2.039-0.539s-1.052-0.875-1.375-1.547c-0.323-0.672-0.484-1.458-0.484-2.359
			c0-1.396,0.349-2.483,1.047-3.262c0.698-0.778,1.667-1.168,2.906-1.168c1.198,0,2.149,0.398,2.855,1.195
			C177.61,14.008,177.963,15.086,177.963,16.445z M171.44,16.445c0,1.094,0.219,1.927,0.656,2.5c0.438,0.573,1.081,0.859,1.93,0.859
			c0.849,0,1.493-0.285,1.934-0.855c0.44-0.57,0.66-1.405,0.66-2.504c0-1.088-0.22-1.915-0.66-2.48
			c-0.44-0.565-1.09-0.848-1.949-0.848c-0.849,0-1.49,0.279-1.922,0.836C171.656,14.511,171.44,15.341,171.44,16.445z"/>
		<path fill="#FFFFFF" d="M186.065,19.586h-0.07c-0.599,0.87-1.495,1.305-2.688,1.305c-1.12,0-1.991-0.383-2.613-1.148
			c-0.623-0.766-0.934-1.854-0.934-3.266c0-1.411,0.312-2.508,0.938-3.289s1.495-1.172,2.609-1.172c1.161,0,2.052,0.422,2.672,1.266
			h0.102l-0.055-0.617l-0.031-0.602V8.578h1.297v12.156h-1.055L186.065,19.586z M183.471,19.805c0.885,0,1.527-0.241,1.926-0.723
			c0.398-0.481,0.598-1.259,0.598-2.332v-0.273c0-1.213-0.202-2.079-0.605-2.598c-0.404-0.518-1.048-0.777-1.934-0.777
			c-0.761,0-1.343,0.296-1.746,0.887c-0.404,0.591-0.605,1.426-0.605,2.504c0,1.094,0.2,1.919,0.602,2.477
			C182.106,19.526,182.695,19.805,183.471,19.805z"/>
		<path fill="#FFFFFF" d="M193.658,20.891c-1.266,0-2.265-0.385-2.996-1.156c-0.732-0.771-1.098-1.841-1.098-3.211
			c0-1.38,0.34-2.477,1.02-3.289s1.592-1.219,2.738-1.219c1.072,0,1.922,0.353,2.547,1.059c0.625,0.706,0.938,1.637,0.938,2.793
			v0.82h-5.898c0.025,1.005,0.279,1.769,0.762,2.289c0.481,0.521,1.16,0.781,2.035,0.781c0.922,0,1.833-0.192,2.734-0.578v1.156
			c-0.459,0.198-0.893,0.34-1.301,0.426C194.73,20.848,194.237,20.891,193.658,20.891z M193.307,13.102
			c-0.688,0-1.236,0.224-1.645,0.672c-0.409,0.448-0.65,1.068-0.723,1.859h4.477c0-0.817-0.183-1.444-0.547-1.879
			C194.504,13.319,193.984,13.102,193.307,13.102z"/>
		<path fill="#FFFFFF" d="M198.83,19.906c0-0.349,0.079-0.613,0.238-0.793c0.158-0.18,0.387-0.27,0.684-0.27
			c0.302,0,0.537,0.09,0.707,0.27c0.169,0.18,0.254,0.444,0.254,0.793c0,0.339-0.086,0.599-0.258,0.781s-0.406,0.273-0.703,0.273
			c-0.266,0-0.486-0.082-0.66-0.246C198.917,20.551,198.83,20.281,198.83,19.906z"/>
		<path fill="#FFFFFF" d="M202.237,24.578c-0.494,0-0.896-0.065-1.203-0.195v-1.055c0.359,0.104,0.714,0.156,1.062,0.156
			c0.406,0,0.704-0.111,0.895-0.332c0.189-0.222,0.285-0.559,0.285-1.012v-9.969h1.297v9.875
			C204.573,23.734,203.793,24.578,202.237,24.578z M203.166,9.852c0-0.297,0.072-0.514,0.219-0.652
			c0.146-0.138,0.328-0.207,0.547-0.207c0.208,0,0.388,0.07,0.539,0.211c0.15,0.141,0.227,0.357,0.227,0.648
			c0,0.292-0.076,0.509-0.227,0.652c-0.151,0.144-0.331,0.215-0.539,0.215c-0.219,0-0.401-0.071-0.547-0.215
			C203.239,10.361,203.166,10.144,203.166,9.852z"/>
		<path fill="#FFFFFF" d="M212.846,18.398c0,0.797-0.297,1.412-0.891,1.844c-0.594,0.433-1.428,0.648-2.5,0.648
			c-1.136,0-2.021-0.18-2.656-0.539v-1.203c0.411,0.208,0.853,0.373,1.324,0.492c0.471,0.12,0.926,0.18,1.363,0.18
			c0.677,0,1.197-0.108,1.562-0.324c0.364-0.216,0.547-0.545,0.547-0.988c0-0.333-0.145-0.618-0.434-0.855
			c-0.289-0.237-0.854-0.517-1.691-0.84c-0.797-0.297-1.363-0.556-1.699-0.777c-0.336-0.221-0.586-0.473-0.75-0.754
			s-0.246-0.617-0.246-1.008c0-0.698,0.283-1.249,0.852-1.652c0.567-0.403,1.346-0.605,2.336-0.605c0.922,0,1.822,0.188,2.703,0.562
			l-0.461,1.055c-0.859-0.354-1.639-0.531-2.336-0.531c-0.615,0-1.078,0.097-1.391,0.289c-0.312,0.193-0.469,0.458-0.469,0.797
			c0,0.229,0.059,0.425,0.176,0.586c0.117,0.162,0.306,0.315,0.566,0.461c0.26,0.146,0.76,0.357,1.5,0.633
			c1.016,0.37,1.701,0.742,2.059,1.117C212.667,17.359,212.846,17.831,212.846,18.398z"/>
	</g>
	<g>
		<path fill="#FFFFFF" d="M156.426,108.735l-3.875-10.125h-0.062c0.073,0.802,0.109,1.755,0.109,2.859v7.266h-1.227V97.313h2
			l3.617,9.422h0.062l3.648-9.422h1.984v11.422h-1.328v-7.359c0-0.844,0.036-1.761,0.109-2.75h-0.062l-3.906,10.109H156.426z"/>
		<path fill="#FFFFFF" d="M173.012,104.446c0,1.396-0.352,2.485-1.055,3.27c-0.703,0.783-1.675,1.176-2.914,1.176
			c-0.766,0-1.445-0.18-2.039-0.539s-1.052-0.875-1.375-1.547c-0.323-0.672-0.484-1.459-0.484-2.359
			c0-1.396,0.349-2.483,1.047-3.262c0.698-0.779,1.667-1.168,2.906-1.168c1.198,0,2.149,0.398,2.855,1.195
			C172.659,102.008,173.012,103.086,173.012,104.446z M166.489,104.446c0,1.094,0.219,1.927,0.656,2.5
			c0.438,0.572,1.081,0.859,1.93,0.859c0.849,0,1.493-0.285,1.934-0.855c0.44-0.57,0.66-1.405,0.66-2.504
			c0-1.089-0.22-1.916-0.66-2.48c-0.44-0.565-1.09-0.848-1.949-0.848c-0.849,0-1.49,0.278-1.922,0.836
			C166.704,102.51,166.489,103.341,166.489,104.446z"/>
		<path fill="#FFFFFF" d="M181.145,108.735v-5.539c0-0.698-0.159-1.219-0.477-1.562c-0.318-0.344-0.815-0.516-1.492-0.516
			c-0.896,0-1.552,0.242-1.969,0.727c-0.417,0.484-0.625,1.283-0.625,2.398v4.492h-1.297v-8.562h1.055l0.211,1.172h0.062
			c0.266-0.422,0.638-0.749,1.117-0.98c0.479-0.232,1.013-0.348,1.602-0.348c1.031,0,1.807,0.248,2.328,0.746
			c0.521,0.497,0.781,1.293,0.781,2.387v5.586H181.145z"/>
		<path fill="#FFFFFF" d="M192.114,100.172v0.82l-1.586,0.188c0.146,0.182,0.275,0.42,0.391,0.715
			c0.114,0.294,0.172,0.626,0.172,0.996c0,0.838-0.287,1.508-0.859,2.008c-0.573,0.5-1.359,0.75-2.359,0.75
			c-0.256,0-0.495-0.021-0.719-0.062c-0.553,0.291-0.828,0.658-0.828,1.102c0,0.234,0.096,0.407,0.289,0.52
			c0.192,0.111,0.523,0.168,0.992,0.168h1.516c0.927,0,1.639,0.195,2.137,0.586c0.497,0.391,0.746,0.957,0.746,1.703
			c0,0.947-0.381,1.67-1.141,2.168c-0.761,0.496-1.87,0.746-3.328,0.746c-1.12,0-1.983-0.209-2.59-0.625
			c-0.607-0.418-0.91-1.006-0.91-1.766c0-0.521,0.167-0.973,0.5-1.352c0.333-0.381,0.802-0.639,1.406-0.773
			c-0.219-0.1-0.402-0.253-0.551-0.461c-0.148-0.209-0.223-0.451-0.223-0.727c0-0.312,0.083-0.586,0.25-0.82
			c0.167-0.234,0.43-0.461,0.789-0.68c-0.443-0.183-0.804-0.492-1.082-0.93c-0.279-0.438-0.418-0.938-0.418-1.5
			c0-0.938,0.281-1.66,0.844-2.168s1.359-0.762,2.391-0.762c0.447,0,0.852,0.052,1.211,0.156H192.114z M185.285,110.172
			c0,0.463,0.195,0.814,0.586,1.055c0.391,0.238,0.95,0.359,1.68,0.359c1.088,0,1.895-0.164,2.418-0.488
			c0.523-0.326,0.785-0.768,0.785-1.324c0-0.465-0.144-0.785-0.43-0.965c-0.287-0.18-0.826-0.27-1.617-0.27h-1.555
			c-0.589,0-1.047,0.141-1.375,0.422S185.285,109.645,185.285,110.172z M185.989,102.915c0,0.599,0.169,1.052,0.508,1.359
			c0.338,0.307,0.81,0.461,1.414,0.461c1.266,0,1.898-0.615,1.898-1.844c0-1.287-0.641-1.93-1.922-1.93
			c-0.609,0-1.078,0.164-1.406,0.492S185.989,102.268,185.989,102.915z"/>
		<path fill="#FFFFFF" d="M201.262,104.446c0,1.396-0.352,2.485-1.055,3.27c-0.703,0.783-1.675,1.176-2.914,1.176
			c-0.766,0-1.445-0.18-2.039-0.539s-1.053-0.875-1.375-1.547c-0.323-0.672-0.484-1.459-0.484-2.359
			c0-1.396,0.349-2.483,1.047-3.262c0.697-0.779,1.666-1.168,2.906-1.168c1.197,0,2.149,0.398,2.855,1.195
			C200.908,102.008,201.262,103.086,201.262,104.446z M194.739,104.446c0,1.094,0.219,1.927,0.656,2.5
			c0.438,0.572,1.08,0.859,1.93,0.859c0.849,0,1.493-0.285,1.934-0.855c0.439-0.57,0.66-1.405,0.66-2.504
			c0-1.089-0.221-1.916-0.66-2.48c-0.44-0.565-1.09-0.848-1.949-0.848c-0.85,0-1.49,0.278-1.922,0.836
			C194.954,102.51,194.739,103.341,194.739,104.446z"/>
		<path fill="#FFFFFF" d="M212.848,102.915c0,1.885-0.512,3.326-1.535,4.324c-1.023,0.997-2.496,1.496-4.418,1.496h-3.164V97.313
			h3.5c1.775,0,3.156,0.492,4.141,1.477S212.848,101.149,212.848,102.915z M211.442,102.961c0-1.49-0.374-2.612-1.121-3.367
			c-0.748-0.756-1.858-1.133-3.332-1.133h-1.93v9.125h1.617c1.583,0,2.773-0.39,3.57-1.168
			C211.043,105.639,211.442,104.487,211.442,102.961z"/>
		<path fill="#FFFFFF" d="M215.395,97.313h3.227c1.516,0,2.611,0.227,3.289,0.68c0.677,0.453,1.016,1.169,1.016,2.148
			c0,0.677-0.189,1.235-0.566,1.676c-0.378,0.439-0.929,0.725-1.652,0.855v0.078c1.734,0.297,2.602,1.208,2.602,2.734
			c0,1.021-0.346,1.817-1.035,2.391c-0.69,0.572-1.655,0.859-2.895,0.859h-3.984V97.313z M216.723,102.204h2.188
			c0.938,0,1.611-0.147,2.023-0.441c0.411-0.295,0.617-0.791,0.617-1.488c0-0.641-0.229-1.104-0.688-1.387
			c-0.459-0.284-1.188-0.426-2.188-0.426h-1.953V102.204z M216.723,103.329v4.273h2.383c0.922,0,1.615-0.179,2.082-0.535
			c0.466-0.357,0.699-0.916,0.699-1.676c0-0.709-0.238-1.229-0.715-1.562c-0.477-0.334-1.202-0.5-2.176-0.5H216.723z"/>
	</g>
	<g>
		<path fill="#FFFFFF" d="M155.631,69.973c0,1.156-0.395,2.047-1.184,2.668c-0.789,0.623-1.918,0.934-3.387,0.934h-1.344v4.492
			h-1.328V66.645h2.961C154.203,66.645,155.631,67.754,155.631,69.973z M149.717,72.434h1.195c1.177,0,2.028-0.189,2.555-0.57
			c0.526-0.379,0.789-0.988,0.789-1.828c0-0.754-0.248-1.316-0.742-1.688c-0.495-0.369-1.266-0.555-2.312-0.555h-1.484V72.434z"/>
		<path fill="#FFFFFF" d="M165.217,73.778c0,1.396-0.352,2.486-1.055,3.27c-0.703,0.785-1.675,1.176-2.914,1.176
			c-0.766,0-1.445-0.18-2.039-0.539s-1.052-0.875-1.375-1.547c-0.323-0.672-0.484-1.457-0.484-2.359
			c0-1.395,0.349-2.482,1.047-3.262c0.698-0.777,1.667-1.168,2.906-1.168c1.198,0,2.149,0.398,2.855,1.195
			C164.864,71.34,165.217,72.418,165.217,73.778z M158.693,73.778c0,1.094,0.219,1.928,0.656,2.5
			c0.438,0.574,1.081,0.859,1.93,0.859c0.849,0,1.493-0.285,1.934-0.855c0.44-0.57,0.66-1.404,0.66-2.504
			c0-1.088-0.22-1.914-0.66-2.48c-0.44-0.564-1.09-0.848-1.949-0.848c-0.849,0-1.49,0.279-1.922,0.836
			C158.909,71.844,158.693,72.674,158.693,73.778z"/>
		<path fill="#FFFFFF" d="M173.013,75.731c0,0.797-0.297,1.412-0.891,1.844c-0.594,0.434-1.427,0.648-2.5,0.648
			c-1.136,0-2.021-0.18-2.656-0.539v-1.203c0.411,0.209,0.853,0.373,1.324,0.492c0.471,0.121,0.926,0.18,1.363,0.18
			c0.677,0,1.198-0.107,1.562-0.324c0.364-0.215,0.547-0.545,0.547-0.988c0-0.332-0.145-0.617-0.434-0.855
			c-0.289-0.236-0.853-0.516-1.691-0.84c-0.797-0.297-1.363-0.555-1.699-0.777c-0.336-0.221-0.586-0.473-0.75-0.754
			s-0.246-0.617-0.246-1.008c0-0.697,0.284-1.248,0.852-1.652c0.567-0.402,1.346-0.605,2.336-0.605c0.922,0,1.823,0.188,2.703,0.562
			l-0.461,1.055c-0.859-0.354-1.638-0.531-2.336-0.531c-0.615,0-1.078,0.098-1.391,0.289c-0.312,0.193-0.469,0.459-0.469,0.797
			c0,0.23,0.059,0.426,0.176,0.586c0.117,0.162,0.306,0.316,0.566,0.461c0.26,0.146,0.76,0.357,1.5,0.633
			c1.016,0.371,1.702,0.742,2.059,1.117C172.835,74.692,173.013,75.165,173.013,75.731z"/>
		<path fill="#FFFFFF" d="M177.888,77.153c0.229,0,0.45-0.016,0.664-0.051c0.213-0.033,0.383-0.068,0.508-0.105v0.992
			c-0.141,0.068-0.348,0.124-0.621,0.168c-0.273,0.045-0.52,0.066-0.738,0.066c-1.656,0-2.484-0.871-2.484-2.617v-5.094h-1.227
			v-0.625l1.227-0.539l0.547-1.828h0.75v1.984h2.484v1.008h-2.484v5.039c0,0.516,0.122,0.912,0.367,1.188
			C177.125,77.016,177.461,77.153,177.888,77.153z"/>
		<path fill="#FFFFFF" d="M187.78,69.504v0.82l-1.586,0.188c0.145,0.184,0.275,0.422,0.391,0.715
			c0.113,0.295,0.172,0.627,0.172,0.996c0,0.84-0.287,1.508-0.86,2.008c-0.573,0.5-1.359,0.75-2.359,0.75
			c-0.255,0-0.495-0.02-0.719-0.062c-0.552,0.293-0.828,0.66-0.828,1.102c0,0.234,0.096,0.408,0.289,0.52
			c0.192,0.113,0.523,0.168,0.992,0.168h1.516c0.927,0,1.639,0.195,2.137,0.586c0.496,0.391,0.746,0.959,0.746,1.703
			c0,0.948-0.381,1.671-1.141,2.168c-0.761,0.498-1.871,0.746-3.329,0.746c-1.12,0-1.983-0.208-2.59-0.625
			c-0.607-0.416-0.91-1.005-0.91-1.766c0-0.521,0.167-0.971,0.5-1.352c0.333-0.379,0.802-0.637,1.406-0.773
			c-0.219-0.098-0.402-0.252-0.551-0.461c-0.148-0.207-0.223-0.449-0.223-0.727c0-0.312,0.083-0.586,0.25-0.82
			c0.167-0.234,0.43-0.461,0.789-0.68c-0.443-0.182-0.804-0.492-1.082-0.93c-0.279-0.438-0.418-0.938-0.418-1.5
			c0-0.938,0.281-1.66,0.844-2.168s1.359-0.762,2.391-0.762c0.448,0,0.852,0.053,1.211,0.156H187.78z M180.951,79.504
			c0,0.464,0.195,0.815,0.586,1.055c0.391,0.24,0.95,0.359,1.68,0.359c1.088,0,1.895-0.162,2.418-0.488
			c0.524-0.325,0.786-0.767,0.786-1.324c0-0.463-0.145-0.785-0.43-0.965c-0.287-0.18-0.826-0.27-1.617-0.27h-1.555
			c-0.589,0-1.047,0.141-1.375,0.422S180.951,78.979,180.951,79.504z M181.654,72.247c0,0.6,0.169,1.053,0.508,1.359
			c0.338,0.309,0.81,0.461,1.414,0.461c1.266,0,1.898-0.613,1.898-1.844c0-1.285-0.641-1.93-1.922-1.93
			c-0.609,0-1.078,0.164-1.406,0.492S181.654,71.602,181.654,72.247z"/>
		<path fill="#FFFFFF" d="M193.444,69.348c0.379,0,0.721,0.031,1.023,0.094l-0.18,1.203c-0.355-0.078-0.668-0.117-0.938-0.117
			c-0.693,0-1.285,0.281-1.777,0.844s-0.738,1.264-0.738,2.102v4.594h-1.297v-8.562h1.07l0.148,1.586h0.062
			c0.316-0.557,0.699-0.986,1.148-1.289C192.414,69.5,192.906,69.348,193.444,69.348z"/>
		<path fill="#FFFFFF" d="M199.365,78.223c-1.266,0-2.266-0.385-2.996-1.156c-0.732-0.77-1.098-1.84-1.098-3.211
			c0-1.379,0.34-2.477,1.02-3.289s1.592-1.219,2.738-1.219c1.072,0,1.922,0.354,2.547,1.059c0.625,0.707,0.938,1.637,0.938,2.793
			v0.82h-5.898c0.025,1.006,0.279,1.77,0.762,2.289c0.48,0.521,1.16,0.781,2.035,0.781c0.922,0,1.832-0.191,2.734-0.578v1.156
			c-0.459,0.199-0.893,0.34-1.301,0.426C200.436,78.18,199.944,78.223,199.365,78.223z M199.014,70.434
			c-0.688,0-1.236,0.225-1.645,0.672c-0.41,0.449-0.65,1.068-0.723,1.859h4.477c0-0.816-0.184-1.443-0.547-1.879
			C200.211,70.653,199.69,70.434,199.014,70.434z"/>
		<path fill="#FFFFFF" d="M211.365,75.028c0,1.006-0.365,1.789-1.094,2.352c-0.73,0.562-1.719,0.844-2.969,0.844
			c-1.355,0-2.396-0.174-3.125-0.523v-1.281c0.469,0.199,0.979,0.355,1.531,0.469c0.551,0.115,1.098,0.172,1.641,0.172
			c0.885,0,1.551-0.168,2-0.504c0.447-0.336,0.672-0.803,0.672-1.402c0-0.395-0.08-0.719-0.238-0.973
			c-0.16-0.252-0.426-0.484-0.797-0.699c-0.373-0.213-0.939-0.455-1.699-0.727c-1.062-0.379-1.822-0.83-2.277-1.352
			c-0.457-0.52-0.684-1.199-0.684-2.039c0-0.879,0.33-1.58,0.992-2.102c0.66-0.52,1.535-0.781,2.625-0.781
			c1.135,0,2.18,0.209,3.133,0.625l-0.414,1.156c-0.943-0.395-1.859-0.594-2.75-0.594c-0.703,0-1.254,0.152-1.648,0.453
			c-0.396,0.303-0.594,0.723-0.594,1.258c0,0.396,0.072,0.721,0.219,0.973c0.145,0.254,0.391,0.484,0.738,0.695
			c0.346,0.211,0.875,0.445,1.59,0.699c1.197,0.428,2.021,0.887,2.473,1.375C211.139,73.612,211.365,74.247,211.365,75.028z"/>
		<path fill="#FFFFFF" d="M223.615,72.34c0,1.465-0.295,2.68-0.883,3.648c-0.59,0.969-1.42,1.625-2.492,1.969l2.719,2.828h-1.93
			l-2.227-2.578l-0.43,0.016c-1.684,0-2.98-0.514-3.895-1.543c-0.914-1.027-1.371-2.48-1.371-4.355c0-1.859,0.457-3.301,1.375-4.324
			c0.916-1.023,2.219-1.535,3.906-1.535c1.641,0,2.922,0.521,3.844,1.562C223.155,69.071,223.615,70.508,223.615,72.34z
			 M214.514,72.34c0,1.547,0.328,2.721,0.988,3.52c0.658,0.801,1.615,1.199,2.871,1.199c1.266,0,2.221-0.398,2.867-1.195
			c0.645-0.797,0.969-1.971,0.969-3.523c0-1.535-0.322-2.701-0.965-3.496c-0.645-0.793-1.596-1.191-2.855-1.191
			c-1.266,0-2.229,0.4-2.887,1.199C214.842,69.653,214.514,70.815,214.514,72.34z"/>
		<path fill="#FFFFFF" d="M226.162,78.067V66.645h1.328v10.219h5.039v1.203H226.162z"/>
	</g>
	<g>
		<path fill="#FFFFFF" d="M165.073,49.4h-6.367V37.979h6.367v1.18h-5.039v3.68h4.734v1.172h-4.734v4.203h5.039V49.4z"/>
		<path fill="#FFFFFF" d="M169.471,45.018l-2.977-4.18h1.477l2.258,3.281l2.25-3.281h1.461l-2.977,4.18l3.133,4.383h-1.469
			l-2.398-3.469l-2.422,3.469h-1.469L169.471,45.018z"/>
		<path fill="#FFFFFF" d="M179.776,49.557c-0.558,0-1.066-0.103-1.527-0.309s-0.848-0.522-1.16-0.949h-0.094
			c0.062,0.5,0.094,0.974,0.094,1.422v3.523h-1.297V40.838h1.055l0.18,1.172h0.062c0.333-0.469,0.721-0.807,1.164-1.016
			c0.442-0.208,0.95-0.312,1.523-0.312c1.135,0,2.012,0.388,2.629,1.164c0.617,0.776,0.926,1.865,0.926,3.266
			c0,1.406-0.314,2.499-0.941,3.277C181.761,49.167,180.89,49.557,179.776,49.557z M179.589,41.783
			c-0.875,0-1.508,0.242-1.898,0.727s-0.591,1.255-0.602,2.312v0.289c0,1.203,0.2,2.064,0.602,2.582
			c0.401,0.519,1.044,0.777,1.93,0.777c0.739,0,1.319-0.299,1.738-0.898c0.419-0.599,0.629-1.424,0.629-2.477
			c0-1.067-0.21-1.887-0.629-2.457C180.939,42.068,180.349,41.783,179.589,41.783z"/>
		<path fill="#FFFFFF" d="M189.502,40.682c0.381,0,0.722,0.031,1.023,0.094l-0.18,1.203c-0.354-0.078-0.666-0.117-0.938-0.117
			c-0.692,0-1.285,0.281-1.777,0.844s-0.738,1.263-0.738,2.102V49.4h-1.296v-8.562h1.07l0.148,1.586h0.062
			c0.318-0.557,0.701-0.987,1.148-1.289C188.474,40.833,188.966,40.682,189.502,40.682z"/>
		<path fill="#FFFFFF" d="M195.424,49.557c-1.266,0-2.264-0.385-2.996-1.156c-0.731-0.771-1.098-1.841-1.098-3.211
			c0-1.38,0.34-2.477,1.02-3.289s1.593-1.219,2.738-1.219c1.073,0,1.922,0.353,2.547,1.059c0.625,0.706,0.938,1.637,0.938,2.793
			v0.82h-5.898c0.026,1.005,0.28,1.769,0.762,2.289c0.482,0.521,1.16,0.781,2.035,0.781c0.922,0,1.834-0.192,2.734-0.578v1.156
			c-0.458,0.198-0.892,0.34-1.301,0.426C196.496,49.514,196.002,49.557,195.424,49.557z M195.073,41.768
			c-0.688,0-1.235,0.224-1.645,0.672c-0.408,0.448-0.649,1.068-0.723,1.859h4.477c0-0.817-0.182-1.444-0.547-1.879
			C196.271,41.985,195.75,41.768,195.073,41.768z"/>
		<path fill="#FFFFFF" d="M206.307,47.064c0,0.797-0.297,1.412-0.891,1.844c-0.594,0.433-1.427,0.648-2.5,0.648
			c-1.135,0-2.021-0.18-2.656-0.539v-1.203c0.412,0.208,0.854,0.373,1.324,0.492c0.472,0.12,0.926,0.18,1.363,0.18
			c0.678,0,1.198-0.108,1.562-0.324c0.365-0.216,0.547-0.545,0.547-0.988c0-0.333-0.145-0.618-0.434-0.855
			c-0.289-0.237-0.853-0.517-1.691-0.84c-0.797-0.297-1.363-0.556-1.699-0.777c-0.336-0.221-0.586-0.473-0.75-0.754
			s-0.246-0.617-0.246-1.008c0-0.698,0.284-1.249,0.852-1.652c0.568-0.403,1.347-0.605,2.336-0.605c0.922,0,1.823,0.188,2.703,0.562
			l-0.461,1.055c-0.859-0.354-1.638-0.531-2.336-0.531c-0.614,0-1.078,0.097-1.391,0.289c-0.312,0.193-0.469,0.458-0.469,0.797
			c0,0.229,0.059,0.425,0.176,0.586c0.117,0.162,0.307,0.315,0.566,0.461c0.261,0.146,0.761,0.357,1.5,0.633
			c1.016,0.37,1.702,0.742,2.059,1.117C206.129,46.025,206.307,46.497,206.307,47.064z"/>
		<path fill="#FFFFFF" d="M213.94,47.064c0,0.797-0.297,1.412-0.891,1.844c-0.594,0.433-1.427,0.648-2.5,0.648
			c-1.135,0-2.021-0.18-2.656-0.539v-1.203c0.412,0.208,0.854,0.373,1.324,0.492c0.472,0.12,0.926,0.18,1.363,0.18
			c0.678,0,1.198-0.108,1.562-0.324c0.365-0.216,0.547-0.545,0.547-0.988c0-0.333-0.145-0.618-0.434-0.855
			c-0.289-0.237-0.853-0.517-1.691-0.84c-0.797-0.297-1.363-0.556-1.699-0.777c-0.336-0.221-0.586-0.473-0.75-0.754
			s-0.246-0.617-0.246-1.008c0-0.698,0.284-1.249,0.852-1.652c0.568-0.403,1.347-0.605,2.336-0.605c0.922,0,1.823,0.188,2.703,0.562
			l-0.461,1.055c-0.859-0.354-1.638-0.531-2.336-0.531c-0.614,0-1.078,0.097-1.391,0.289c-0.312,0.193-0.469,0.458-0.469,0.797
			c0,0.229,0.059,0.425,0.176,0.586c0.117,0.162,0.307,0.315,0.566,0.461c0.261,0.146,0.761,0.357,1.5,0.633
			c1.016,0.37,1.702,0.742,2.059,1.117C213.762,46.025,213.94,46.497,213.94,47.064z"/>
	</g>
</g>
</svg>
