<?xml version="1.0" encoding="utf-8"?>
<!-- Generator: Adobe Illustrator 16.2.1, SVG Export Plug-In . SVG Version: 6.00 Build 0)  -->
<!DOCTYPE svg PUBLIC "-//W3C//DTD SVG 1.1//EN" "http://www.w3.org/Graphics/SVG/1.1/DTD/svg11.dtd">
<svg version="1.1" xmlns="http://www.w3.org/2000/svg" xmlns:xlink="http://www.w3.org/1999/xlink" x="0px" y="0px"
	 width="371.148px" height="200px" viewBox="14 0 371.148 200" enable-background="new 14 0 371.148 200" xml:space="preserve">
<g id="Layer_1">
	<g>
		<g>
			<rect x="14" fill="#92C83E" width="370.904" height="29.451"/>
		</g>
		<g>
			<rect x="14" y="29.451" fill="#75A331" width="370.904" height="29.451"/>
		</g>
		<rect x="14.243" y="58.902" fill="#537B22" width="370.905" height="29.45"/>
		<rect x="14" y="87.123" fill="#4A701C" width="370.904" height="29.447"/>
		<rect x="14" y="114.111" fill="#35570E" width="370.904" height="29.449"/>
		<rect x="14" y="170.551" fill="#1A3A00" width="370.904" height="29.449"/>
		<rect x="14" y="142.332" fill="#2E4F08" width="370.904" height="29.449"/>
	</g>
</g>
<g id="Layer_2">
	<g>
		<path fill="#FFFFFF" d="M189.409,20.5h-1.328v-5.375h-6.016V20.5h-1.328V9.078h1.328v4.859h6.016V9.078h1.328V20.5z"/>
		<path fill="#FFFFFF" d="M196.057,20.5h-1.328V10.258h-3.617v-1.18h8.562v1.18h-3.617V20.5z"/>
		<path fill="#FFFFFF" d="M206.447,20.5l-3.875-10.125h-0.062c0.073,0.802,0.109,1.755,0.109,2.859V20.5h-1.227V9.078h2l3.617,9.422
			h0.062l3.648-9.422h1.984V20.5h-1.328v-7.359c0-0.844,0.037-1.76,0.109-2.75h-0.062L207.518,20.5H206.447z"/>
		<path fill="#FFFFFF" d="M215.838,20.5V9.078h1.328v10.219h5.039V20.5H215.838z"/>
	</g>
	<g>
		<path fill="#FFFFFF" d="M192.628,38.769c-1.255,0-2.246,0.418-2.973,1.254s-1.09,1.98-1.09,3.434c0,1.495,0.35,2.65,1.051,3.465
			c0.7,0.815,1.699,1.223,2.996,1.223c0.797,0,1.706-0.143,2.727-0.43v1.164c-0.792,0.297-1.769,0.445-2.93,0.445
			c-1.683,0-2.98-0.51-3.895-1.531c-0.914-1.021-1.371-2.471-1.371-4.352c0-1.177,0.22-2.208,0.66-3.094
			c0.44-0.885,1.075-1.567,1.906-2.047c0.831-0.479,1.809-0.719,2.934-0.719c1.198,0,2.245,0.219,3.141,0.656l-0.562,1.141
			C194.357,38.972,193.493,38.769,192.628,38.769z"/>
		<path fill="#FFFFFF" d="M204.277,46.128c0,1.005-0.365,1.789-1.094,2.352c-0.73,0.562-1.719,0.844-2.969,0.844
			c-1.354,0-2.396-0.174-3.125-0.523v-1.281c0.469,0.198,0.979,0.354,1.531,0.469c0.552,0.115,1.099,0.172,1.641,0.172
			c0.885,0,1.551-0.168,2-0.504c0.447-0.336,0.672-0.803,0.672-1.402c0-0.396-0.08-0.72-0.238-0.973
			c-0.16-0.252-0.426-0.485-0.797-0.699c-0.373-0.213-0.939-0.456-1.7-0.727c-1.062-0.38-1.822-0.831-2.277-1.352
			c-0.456-0.521-0.684-1.2-0.684-2.039c0-0.88,0.331-1.581,0.992-2.102c0.661-0.521,1.536-0.781,2.625-0.781
			c1.135,0,2.18,0.208,3.133,0.625l-0.414,1.156c-0.943-0.396-1.859-0.594-2.75-0.594c-0.704,0-1.253,0.151-1.649,0.453
			c-0.396,0.302-0.594,0.722-0.594,1.258c0,0.396,0.073,0.72,0.219,0.973c0.146,0.253,0.392,0.484,0.738,0.695
			c0.346,0.211,0.876,0.444,1.59,0.699c1.197,0.427,2.021,0.886,2.473,1.375C204.051,44.711,204.277,45.347,204.277,46.128z"/>
		<path fill="#FFFFFF" d="M213.059,46.128c0,1.005-0.365,1.789-1.094,2.352c-0.73,0.562-1.719,0.844-2.969,0.844
			c-1.355,0-2.396-0.174-3.125-0.523v-1.281c0.469,0.198,0.979,0.354,1.531,0.469c0.551,0.115,1.098,0.172,1.641,0.172
			c0.885,0,1.551-0.168,2-0.504c0.447-0.336,0.672-0.803,0.672-1.402c0-0.396-0.08-0.72-0.238-0.973
			c-0.16-0.252-0.426-0.485-0.797-0.699c-0.373-0.213-0.939-0.456-1.699-0.727c-1.062-0.38-1.822-0.831-2.277-1.352
			c-0.457-0.521-0.684-1.2-0.684-2.039c0-0.88,0.33-1.581,0.992-2.102c0.66-0.521,1.535-0.781,2.625-0.781
			c1.135,0,2.18,0.208,3.133,0.625l-0.414,1.156c-0.943-0.396-1.859-0.594-2.75-0.594c-0.703,0-1.254,0.151-1.648,0.453
			c-0.396,0.302-0.594,0.722-0.594,1.258c0,0.396,0.072,0.72,0.219,0.973c0.145,0.253,0.391,0.484,0.738,0.695
			c0.346,0.211,0.875,0.444,1.59,0.699c1.197,0.427,2.021,0.886,2.473,1.375C212.832,44.711,213.059,45.347,213.059,46.128z"/>
	</g>
	<g>
		<path fill="#FFFFFF" d="M185.064,128.086v4.75h-1.328v-11.422h3.133c1.401,0,2.436,0.268,3.105,0.805
			c0.669,0.536,1.004,1.344,1.004,2.422c0,1.51-0.766,2.531-2.297,3.062l3.102,5.133h-1.57l-2.766-4.75H185.064z M185.064,126.945
			h1.82c0.938,0,1.625-0.187,2.062-0.559c0.438-0.373,0.656-0.932,0.656-1.676c0-0.756-0.223-1.3-0.668-1.633
			c-0.445-0.334-1.16-0.5-2.145-0.5h-1.727V126.945z"/>
		<path fill="#FFFFFF" d="M197.049,132.992c-1.266,0-2.265-0.386-2.996-1.156c-0.732-0.771-1.098-1.842-1.098-3.211
			c0-1.381,0.34-2.477,1.02-3.289s1.592-1.219,2.738-1.219c1.073,0,1.922,0.353,2.547,1.059c0.625,0.705,0.938,1.637,0.938,2.793
			v0.82h-5.898c0.026,1.005,0.28,1.768,0.762,2.289c0.481,0.521,1.16,0.781,2.035,0.781c0.922,0,1.833-0.193,2.734-0.578v1.156
			c-0.458,0.197-0.892,0.34-1.301,0.426C198.12,132.949,197.627,132.992,197.049,132.992z M196.697,125.203
			c-0.688,0-1.236,0.224-1.645,0.672c-0.409,0.447-0.65,1.067-0.723,1.859h4.477c0-0.818-0.183-1.444-0.547-1.879
			C197.895,125.42,197.374,125.203,196.697,125.203z"/>
		<path fill="#FFFFFF" d="M207.674,132.836l-0.258-1.219h-0.062c-0.428,0.536-0.854,0.899-1.277,1.09
			c-0.425,0.189-0.955,0.285-1.59,0.285c-0.85,0-1.515-0.219-1.996-0.656c-0.482-0.438-0.723-1.061-0.723-1.867
			c0-1.729,1.383-2.636,4.148-2.719l1.453-0.047v-0.531c0-0.672-0.145-1.168-0.434-1.488s-0.752-0.48-1.387-0.48
			c-0.714,0-1.521,0.219-2.422,0.656l-0.398-0.992c0.422-0.229,0.884-0.409,1.387-0.539c0.502-0.131,1.006-0.195,1.512-0.195
			c1.021,0,1.777,0.227,2.27,0.68s0.738,1.18,0.738,2.18v5.844H207.674z M204.744,131.922c0.807,0,1.441-0.222,1.902-0.664
			c0.461-0.443,0.691-1.062,0.691-1.859v-0.773l-1.297,0.055c-1.031,0.036-1.775,0.196-2.23,0.48
			c-0.456,0.283-0.684,0.725-0.684,1.324c0,0.469,0.142,0.825,0.426,1.07C203.836,131.799,204.233,131.922,204.744,131.922z"/>
		<path fill="#FFFFFF" d="M214.729,132.992c-1.24,0-2.199-0.382-2.879-1.145c-0.68-0.764-1.02-1.843-1.02-3.238
			c0-1.433,0.345-2.539,1.035-3.32c0.689-0.781,1.673-1.172,2.949-1.172c0.411,0,0.822,0.044,1.234,0.133
			c0.411,0.088,0.734,0.192,0.969,0.312l-0.398,1.102c-0.287-0.115-0.6-0.21-0.938-0.285c-0.339-0.076-0.639-0.113-0.898-0.113
			c-1.74,0-2.609,1.109-2.609,3.328c0,1.052,0.212,1.859,0.637,2.422c0.424,0.562,1.053,0.844,1.887,0.844
			c0.713,0,1.445-0.154,2.195-0.461v1.148C216.319,132.844,215.598,132.992,214.729,132.992z"/>
		<path fill="#FFFFFF" d="M221.689,131.922c0.229,0,0.45-0.018,0.664-0.051c0.213-0.034,0.383-0.069,0.508-0.105v0.992
			c-0.141,0.067-0.348,0.123-0.621,0.168c-0.273,0.043-0.52,0.066-0.738,0.066c-1.656,0-2.484-0.873-2.484-2.617v-5.094h-1.227
			v-0.625l1.227-0.539l0.547-1.828h0.75v1.984h2.484v1.008h-2.484v5.039c0,0.516,0.122,0.911,0.367,1.188
			C220.926,131.783,221.262,131.922,221.689,131.922z"/>
	</g>
	<g>
		<path fill="#FFFFFF" d="M107.985,100.773c0,1.828-0.462,3.266-1.387,4.312c-0.925,1.047-2.21,1.57-3.855,1.57
			c-1.683,0-2.98-0.515-3.895-1.543c-0.914-1.029-1.371-2.48-1.371-4.355c0-1.86,0.458-3.301,1.375-4.325
			c0.917-1.023,2.219-1.535,3.906-1.535c1.641,0,2.922,0.521,3.844,1.562C107.524,97.502,107.985,98.94,107.985,100.773z
			 M98.883,100.773c0,1.547,0.329,2.72,0.988,3.52c0.659,0.799,1.616,1.199,2.871,1.199c1.266,0,2.221-0.398,2.867-1.195
			c0.646-0.797,0.969-1.972,0.969-3.523c0-1.537-0.322-2.702-0.965-3.497c-0.644-0.794-1.595-1.191-2.855-1.191
			c-1.266,0-2.228,0.4-2.887,1.199C99.212,98.084,98.883,99.247,98.883,100.773z"/>
		<path fill="#FFFFFF" d="M114.321,97.796c1.125,0,1.999,0.384,2.621,1.152c0.622,0.769,0.934,1.856,0.934,3.262
			s-0.314,2.498-0.941,3.277c-0.628,0.778-1.499,1.168-2.613,1.168c-0.558,0-1.066-0.104-1.527-0.309
			c-0.461-0.206-0.848-0.522-1.16-0.949h-0.094l-0.273,1.102h-0.93V94.343h1.297v2.953c0,0.662-0.021,1.255-0.062,1.781h0.062
			C112.237,98.224,113.133,97.796,114.321,97.796z M114.133,98.882c-0.886,0-1.523,0.254-1.914,0.762s-0.586,1.364-0.586,2.567
			s0.2,2.063,0.602,2.582c0.401,0.518,1.044,0.777,1.93,0.777c0.797,0,1.391-0.291,1.781-0.871c0.391-0.581,0.586-1.416,0.586-2.504
			c0-1.115-0.195-1.946-0.586-2.493S114.951,98.882,114.133,98.882z"/>
		<path fill="#FFFFFF" d="M119.102,110.344c-0.495,0-0.896-0.066-1.203-0.195v-1.055c0.359,0.104,0.714,0.156,1.062,0.156
			c0.406,0,0.704-0.111,0.895-0.332c0.19-0.223,0.285-0.559,0.285-1.012v-9.969h1.297v9.875
			C121.438,109.5,120.659,110.344,119.102,110.344z M120.032,95.617c0-0.297,0.073-0.514,0.219-0.652
			c0.146-0.138,0.328-0.207,0.547-0.207c0.208,0,0.388,0.07,0.539,0.211c0.151,0.141,0.227,0.357,0.227,0.648
			c0,0.292-0.076,0.509-0.227,0.652c-0.151,0.144-0.331,0.215-0.539,0.215c-0.219,0-0.401-0.071-0.547-0.215
			C120.104,96.126,120.032,95.909,120.032,95.617z"/>
		<path fill="#FFFFFF" d="M127.805,106.656c-1.266,0-2.265-0.386-2.996-1.156c-0.732-0.771-1.098-1.842-1.098-3.211
			c0-1.381,0.34-2.477,1.02-3.29s1.592-1.219,2.738-1.219c1.073,0,1.922,0.353,2.547,1.059c0.625,0.706,0.938,1.637,0.938,2.793
			v0.82h-5.898c0.026,1.005,0.28,1.768,0.762,2.289c0.481,0.521,1.16,0.781,2.035,0.781c0.922,0,1.833-0.193,2.734-0.578v1.156
			c-0.458,0.197-0.892,0.34-1.301,0.426C128.876,106.613,128.383,106.656,127.805,106.656z M127.454,98.867
			c-0.688,0-1.236,0.224-1.645,0.672c-0.409,0.448-0.65,1.068-0.723,1.86h4.477c0-0.818-0.183-1.444-0.547-1.879
			C128.651,99.084,128.13,98.867,127.454,98.867z"/>
		<path fill="#FFFFFF" d="M136.586,106.656c-1.24,0-2.199-0.382-2.879-1.145c-0.68-0.764-1.02-1.843-1.02-3.238
			c0-1.433,0.345-2.54,1.035-3.321c0.69-0.781,1.673-1.172,2.949-1.172c0.411,0,0.823,0.044,1.234,0.133
			c0.411,0.089,0.734,0.193,0.969,0.312l-0.398,1.102c-0.287-0.114-0.599-0.209-0.938-0.285c-0.339-0.075-0.638-0.113-0.898-0.113
			c-1.74,0-2.609,1.109-2.609,3.329c0,1.052,0.212,1.859,0.637,2.422c0.424,0.562,1.053,0.844,1.887,0.844
			c0.713,0,1.445-0.154,2.195-0.461v1.148C138.177,106.508,137.456,106.656,136.586,106.656z"/>
		<path fill="#FFFFFF" d="M143.547,105.586c0.229,0,0.45-0.018,0.664-0.051c0.213-0.034,0.383-0.069,0.508-0.105v0.992
			c-0.141,0.067-0.348,0.123-0.621,0.168c-0.273,0.043-0.52,0.066-0.738,0.066c-1.656,0-2.484-0.873-2.484-2.617v-5.094h-1.227
			V98.32l1.227-0.539l0.547-1.828h0.75v1.984h2.484v1.008h-2.484v5.04c0,0.516,0.122,0.911,0.367,1.188
			C142.784,105.447,143.12,105.586,143.547,105.586z"/>
		<path fill="#FFFFFF" d="M160.696,100.773c0,1.828-0.462,3.266-1.387,4.312c-0.925,1.047-2.21,1.57-3.855,1.57
			c-1.683,0-2.98-0.515-3.895-1.543c-0.914-1.029-1.371-2.48-1.371-4.355c0-1.86,0.458-3.301,1.375-4.325
			c0.917-1.023,2.219-1.535,3.906-1.535c1.641,0,2.922,0.521,3.844,1.562C160.235,97.502,160.696,98.94,160.696,100.773z
			 M151.594,100.773c0,1.547,0.329,2.72,0.988,3.52c0.659,0.799,1.616,1.199,2.871,1.199c1.266,0,2.221-0.398,2.867-1.195
			c0.646-0.797,0.969-1.972,0.969-3.523c0-1.537-0.322-2.702-0.965-3.497c-0.644-0.794-1.595-1.191-2.855-1.191
			c-1.266,0-2.228,0.4-2.887,1.199C151.923,98.084,151.594,99.247,151.594,100.773z"/>
		<path fill="#FFFFFF" d="M166.954,97.781c0.38,0,0.721,0.031,1.023,0.094l-0.18,1.203c-0.354-0.078-0.667-0.117-0.938-0.117
			c-0.693,0-1.285,0.281-1.777,0.844s-0.738,1.263-0.738,2.102v4.594h-1.297v-8.563h1.07l0.148,1.586h0.062
			c0.317-0.557,0.7-0.987,1.148-1.289C165.925,97.932,166.417,97.781,166.954,97.781z"/>
		<path fill="#FFFFFF" d="M169.469,95.617c0-0.297,0.073-0.514,0.219-0.652c0.146-0.138,0.328-0.207,0.547-0.207
			c0.208,0,0.388,0.07,0.539,0.211c0.151,0.141,0.227,0.357,0.227,0.648c0,0.292-0.076,0.509-0.227,0.652
			c-0.151,0.144-0.331,0.215-0.539,0.215c-0.219,0-0.401-0.071-0.547-0.215C169.542,96.126,169.469,95.909,169.469,95.617z
			 M170.875,106.5h-1.297v-8.563h1.297V106.5z"/>
		<path fill="#FFFFFF" d="M177.243,106.656c-1.266,0-2.265-0.386-2.996-1.156c-0.732-0.771-1.098-1.842-1.098-3.211
			c0-1.381,0.34-2.477,1.02-3.29s1.592-1.219,2.738-1.219c1.073,0,1.922,0.353,2.547,1.059c0.625,0.706,0.938,1.637,0.938,2.793
			v0.82h-5.898c0.026,1.005,0.28,1.768,0.762,2.289c0.481,0.521,1.16,0.781,2.035,0.781c0.922,0,1.833-0.193,2.734-0.578v1.156
			c-0.458,0.197-0.892,0.34-1.301,0.426C178.314,106.613,177.821,106.656,177.243,106.656z M176.891,98.867
			c-0.688,0-1.236,0.224-1.645,0.672c-0.409,0.448-0.65,1.068-0.723,1.86H179c0-0.818-0.183-1.444-0.547-1.879
			C178.089,99.084,177.568,98.867,176.891,98.867z"/>
		<path fill="#FFFFFF" d="M188.461,106.5v-5.539c0-0.698-0.159-1.219-0.477-1.563c-0.318-0.344-0.815-0.516-1.492-0.516
			c-0.896,0-1.552,0.242-1.969,0.727c-0.417,0.484-0.625,1.284-0.625,2.399v4.492h-1.297v-8.563h1.055l0.211,1.172h0.062
			c0.266-0.422,0.638-0.749,1.117-0.98c0.479-0.231,1.013-0.348,1.602-0.348c1.031,0,1.807,0.249,2.328,0.746
			c0.521,0.498,0.781,1.293,0.781,2.387v5.586H188.461z"/>
		<path fill="#FFFFFF" d="M195.188,105.586c0.229,0,0.45-0.018,0.664-0.051c0.213-0.034,0.383-0.069,0.508-0.105v0.992
			c-0.141,0.067-0.348,0.123-0.621,0.168c-0.273,0.043-0.52,0.066-0.738,0.066c-1.656,0-2.484-0.873-2.484-2.617v-5.094h-1.227
			V98.32l1.227-0.539l0.547-1.828h0.75v1.984h2.484v1.008h-2.484v5.04c0,0.516,0.122,0.911,0.367,1.188
			C194.425,105.447,194.761,105.586,195.188,105.586z"/>
		<path fill="#FFFFFF" d="M201.688,106.656c-1.265,0-2.264-0.386-2.996-1.156c-0.732-0.771-1.098-1.842-1.098-3.211
			c0-1.381,0.34-2.477,1.02-3.29s1.592-1.219,2.738-1.219c1.073,0,1.922,0.353,2.547,1.059c0.625,0.706,0.938,1.637,0.938,2.793
			v0.82h-5.898c0.026,1.005,0.28,1.768,0.762,2.289c0.481,0.521,1.16,0.781,2.035,0.781c0.922,0,1.834-0.193,2.734-0.578v1.156
			c-0.458,0.197-0.892,0.34-1.301,0.426C202.76,106.613,202.266,106.656,201.688,106.656z M201.336,98.867
			c-0.688,0-1.235,0.224-1.644,0.672c-0.409,0.448-0.65,1.068-0.723,1.86h4.476c0-0.818-0.182-1.444-0.547-1.879
			C202.534,99.084,202.014,98.867,201.336,98.867z"/>
		<path fill="#FFFFFF" d="M212.875,105.352h-0.07c-0.599,0.869-1.494,1.305-2.688,1.305c-1.119,0-1.99-0.383-2.613-1.148
			c-0.622-0.766-0.934-1.854-0.934-3.266c0-1.412,0.312-2.508,0.938-3.29s1.495-1.172,2.609-1.172c1.162,0,2.053,0.422,2.672,1.266
			h0.102l-0.055-0.617l-0.031-0.602v-3.484h1.297V106.5h-1.055L212.875,105.352z M210.281,105.57c0.886,0,1.527-0.241,1.926-0.723
			c0.398-0.482,0.598-1.26,0.598-2.332v-0.273c0-1.214-0.201-2.08-0.605-2.598c-0.403-0.518-1.048-0.777-1.934-0.777
			c-0.76,0-1.342,0.296-1.746,0.887c-0.403,0.591-0.605,1.426-0.605,2.504c0,1.094,0.201,1.919,0.602,2.477
			C208.917,105.291,209.506,105.57,210.281,105.57z"/>
		<path fill="#FFFFFF" d="M228.445,98.406c0,1.156-0.395,2.046-1.184,2.668c-0.789,0.622-1.918,0.934-3.387,0.934h-1.344v4.492
			h-1.328V95.078h2.961C227.019,95.078,228.445,96.187,228.445,98.406z M222.531,100.867h1.195c1.178,0,2.029-0.19,2.555-0.571
			c0.526-0.38,0.789-0.989,0.789-1.828c0-0.755-0.247-1.317-0.742-1.688c-0.494-0.37-1.266-0.555-2.312-0.555h-1.484V100.867z"/>
		<path fill="#FFFFFF" d="M234.547,97.781c0.381,0,0.722,0.031,1.023,0.094l-0.18,1.203c-0.354-0.078-0.666-0.117-0.938-0.117
			c-0.692,0-1.285,0.281-1.777,0.844s-0.738,1.263-0.738,2.102v4.594h-1.297v-8.563h1.07l0.148,1.586h0.062
			c0.318-0.557,0.701-0.987,1.148-1.289C233.519,97.932,234.011,97.781,234.547,97.781z"/>
		<path fill="#FFFFFF" d="M244.242,102.211c0,1.396-0.352,2.485-1.055,3.27c-0.703,0.783-1.674,1.176-2.914,1.176
			c-0.766,0-1.445-0.18-2.039-0.539s-1.052-0.875-1.375-1.547c-0.322-0.672-0.484-1.459-0.484-2.359c0-1.396,0.35-2.483,1.047-3.262
			c0.698-0.778,1.667-1.168,2.906-1.168c1.198,0,2.15,0.398,2.855,1.195C243.89,99.773,244.242,100.852,244.242,102.211z
			 M237.719,102.211c0,1.094,0.219,1.927,0.656,2.5c0.438,0.572,1.081,0.859,1.93,0.859c0.85,0,1.494-0.285,1.934-0.855
			c0.44-0.57,0.66-1.405,0.66-2.504c0-1.089-0.22-1.916-0.66-2.481c-0.439-0.565-1.09-0.848-1.949-0.848
			c-0.849,0-1.489,0.279-1.922,0.836C237.936,100.276,237.719,101.106,237.719,102.211z"/>
		<path fill="#FFFFFF" d="M253.523,97.937v0.82l-1.586,0.188c0.146,0.183,0.276,0.421,0.391,0.715
			c0.115,0.294,0.172,0.626,0.172,0.997c0,0.838-0.286,1.508-0.859,2.008c-0.572,0.5-1.359,0.75-2.359,0.75
			c-0.255,0-0.494-0.021-0.719-0.062c-0.552,0.291-0.828,0.658-0.828,1.102c0,0.234,0.097,0.407,0.289,0.52
			c0.193,0.111,0.523,0.168,0.992,0.168h1.516c0.928,0,1.64,0.195,2.137,0.586c0.498,0.391,0.746,0.957,0.746,1.703
			c0,0.947-0.38,1.67-1.141,2.168c-0.76,0.496-1.869,0.746-3.328,0.746c-1.119,0-1.982-0.209-2.59-0.625
			c-0.606-0.418-0.91-1.006-0.91-1.766c0-0.521,0.167-0.973,0.5-1.352c0.334-0.381,0.803-0.639,1.406-0.773
			c-0.219-0.1-0.402-0.253-0.551-0.461c-0.148-0.209-0.223-0.451-0.223-0.727c0-0.312,0.084-0.586,0.25-0.82
			c0.167-0.234,0.43-0.461,0.789-0.68c-0.442-0.183-0.803-0.492-1.082-0.93c-0.278-0.438-0.418-0.938-0.418-1.5
			c0-0.938,0.281-1.661,0.844-2.168s1.359-0.762,2.391-0.762c0.448,0,0.852,0.052,1.211,0.156H253.523z M246.695,107.938
			c0,0.463,0.195,0.814,0.586,1.055c0.391,0.238,0.951,0.359,1.68,0.359c1.089,0,1.895-0.164,2.418-0.488
			c0.523-0.326,0.785-0.768,0.785-1.324c0-0.465-0.143-0.785-0.43-0.965c-0.286-0.18-0.825-0.27-1.617-0.27h-1.555
			c-0.588,0-1.047,0.141-1.375,0.422S246.695,107.41,246.695,107.938z M247.398,100.68c0,0.599,0.17,1.052,0.508,1.359
			c0.339,0.307,0.811,0.461,1.414,0.461c1.266,0,1.898-0.615,1.898-1.844c0-1.287-0.641-1.93-1.922-1.93
			c-0.609,0-1.078,0.164-1.406,0.492S247.398,100.034,247.398,100.68z"/>
		<path fill="#FFFFFF" d="M259.188,97.781c0.379,0,0.721,0.031,1.023,0.094l-0.18,1.203c-0.355-0.078-0.668-0.117-0.938-0.117
			c-0.692,0-1.285,0.281-1.777,0.844s-0.738,1.263-0.738,2.102v4.594h-1.297v-8.563h1.07l0.148,1.586h0.062
			c0.318-0.557,0.701-0.987,1.148-1.289C258.159,97.932,258.651,97.781,259.188,97.781z"/>
		<path fill="#FFFFFF" d="M266.759,106.5l-0.258-1.219h-0.062c-0.427,0.536-0.853,0.899-1.277,1.09
			c-0.425,0.189-0.954,0.285-1.59,0.285c-0.849,0-1.515-0.219-1.996-0.656s-0.723-1.061-0.723-1.867
			c0-1.729,1.383-2.636,4.148-2.719l1.453-0.047v-0.531c0-0.672-0.145-1.168-0.434-1.489s-0.751-0.48-1.387-0.48
			c-0.714,0-1.521,0.219-2.422,0.656l-0.398-0.992c0.422-0.229,0.884-0.409,1.387-0.539c0.503-0.13,1.007-0.195,1.512-0.195
			c1.021,0,1.777,0.227,2.27,0.68s0.738,1.18,0.738,2.18v5.844H266.759z M263.829,105.586c0.808,0,1.441-0.222,1.902-0.664
			c0.461-0.443,0.691-1.062,0.691-1.859v-0.773l-1.297,0.055c-1.031,0.036-1.774,0.196-2.23,0.48
			c-0.456,0.283-0.684,0.725-0.684,1.324c0,0.469,0.142,0.825,0.426,1.07C262.922,105.463,263.318,105.586,263.829,105.586z"/>
		<path fill="#FFFFFF" d="M281.306,106.5v-5.57c0-0.683-0.146-1.194-0.438-1.536c-0.292-0.341-0.745-0.512-1.359-0.512
			c-0.808,0-1.403,0.232-1.789,0.695c-0.386,0.464-0.578,1.177-0.578,2.141v4.781h-1.297v-5.57c0-0.683-0.146-1.194-0.438-1.536
			c-0.292-0.341-0.747-0.512-1.367-0.512c-0.812,0-1.407,0.244-1.785,0.73c-0.378,0.487-0.566,1.286-0.566,2.395v4.492h-1.297
			v-8.563h1.055l0.211,1.172h0.062c0.245-0.417,0.59-0.742,1.035-0.977s0.944-0.352,1.496-0.352c1.339,0,2.214,0.484,2.625,1.453
			h0.062c0.255-0.448,0.625-0.802,1.109-1.062c0.484-0.26,1.036-0.391,1.656-0.391c0.969,0,1.694,0.249,2.176,0.746
			c0.481,0.498,0.723,1.293,0.723,2.387v5.586H281.306z"/>
		<path fill="#FFFFFF" d="M296.188,106.5v-5.57c0-0.683-0.146-1.194-0.438-1.536c-0.292-0.341-0.745-0.512-1.359-0.512
			c-0.808,0-1.403,0.232-1.789,0.695c-0.386,0.464-0.578,1.177-0.578,2.141v4.781h-1.297v-5.57c0-0.683-0.146-1.194-0.438-1.536
			c-0.292-0.341-0.747-0.512-1.367-0.512c-0.812,0-1.407,0.244-1.785,0.73c-0.378,0.487-0.566,1.286-0.566,2.395v4.492h-1.297
			v-8.563h1.055l0.211,1.172h0.062c0.245-0.417,0.59-0.742,1.035-0.977s0.944-0.352,1.496-0.352c1.339,0,2.214,0.484,2.625,1.453
			h0.062c0.255-0.448,0.625-0.802,1.109-1.062c0.484-0.26,1.036-0.391,1.656-0.391c0.969,0,1.694,0.249,2.176,0.746
			c0.481,0.498,0.723,1.293,0.723,2.387v5.586H296.188z"/>
		<path fill="#FFFFFF" d="M300.048,95.617c0-0.297,0.073-0.514,0.219-0.652c0.146-0.138,0.328-0.207,0.547-0.207
			c0.208,0,0.388,0.07,0.539,0.211s0.227,0.357,0.227,0.648c0,0.292-0.075,0.509-0.227,0.652c-0.151,0.144-0.331,0.215-0.539,0.215
			c-0.219,0-0.401-0.071-0.547-0.215C300.121,96.126,300.048,95.909,300.048,95.617z M301.454,106.5h-1.297v-8.563h1.297V106.5z"/>
		<path fill="#FFFFFF" d="M310.063,106.5v-5.539c0-0.698-0.159-1.219-0.477-1.563s-0.815-0.516-1.492-0.516
			c-0.896,0-1.552,0.242-1.969,0.727s-0.625,1.284-0.625,2.399v4.492h-1.297v-8.563h1.055l0.211,1.172h0.062
			c0.266-0.422,0.638-0.749,1.117-0.98c0.479-0.231,1.013-0.348,1.602-0.348c1.031,0,1.808,0.249,2.328,0.746
			c0.521,0.498,0.781,1.293,0.781,2.387v5.586H310.063z"/>
		<path fill="#FFFFFF" d="M321.032,97.937v0.82l-1.586,0.188c0.146,0.183,0.276,0.421,0.391,0.715
			c0.114,0.294,0.172,0.626,0.172,0.997c0,0.838-0.286,1.508-0.859,2.008s-1.359,0.75-2.359,0.75c-0.255,0-0.495-0.021-0.719-0.062
			c-0.552,0.291-0.828,0.658-0.828,1.102c0,0.234,0.097,0.407,0.289,0.52c0.192,0.111,0.523,0.168,0.992,0.168h1.516
			c0.927,0,1.64,0.195,2.137,0.586s0.746,0.957,0.746,1.703c0,0.947-0.38,1.67-1.141,2.168c-0.761,0.496-1.87,0.746-3.328,0.746
			c-1.12,0-1.983-0.209-2.59-0.625c-0.606-0.418-0.91-1.006-0.91-1.766c0-0.521,0.167-0.973,0.5-1.352
			c0.333-0.381,0.802-0.639,1.406-0.773c-0.219-0.1-0.402-0.253-0.551-0.461c-0.148-0.209-0.223-0.451-0.223-0.727
			c0-0.312,0.083-0.586,0.25-0.82s0.43-0.461,0.789-0.68c-0.442-0.183-0.804-0.492-1.082-0.93s-0.418-0.938-0.418-1.5
			c0-0.938,0.281-1.661,0.844-2.168s1.359-0.762,2.391-0.762c0.448,0,0.852,0.052,1.211,0.156H321.032z M314.204,107.938
			c0,0.463,0.195,0.814,0.586,1.055c0.391,0.238,0.95,0.359,1.68,0.359c1.089,0,1.895-0.164,2.418-0.488
			c0.523-0.326,0.785-0.768,0.785-1.324c0-0.465-0.144-0.785-0.43-0.965s-0.825-0.27-1.617-0.27h-1.555
			c-0.589,0-1.047,0.141-1.375,0.422S314.204,107.41,314.204,107.938z M314.907,100.68c0,0.599,0.169,1.052,0.508,1.359
			c0.339,0.307,0.81,0.461,1.414,0.461c1.266,0,1.898-0.615,1.898-1.844c0-1.287-0.641-1.93-1.922-1.93
			c-0.609,0-1.078,0.164-1.406,0.492S314.907,100.034,314.907,100.68z"/>
	</g>
	<g>
		<path fill="#FFFFFF" d="M166.739,81.174c-0.489,0-0.875-0.07-1.156-0.211V79.83c0.37,0.104,0.755,0.156,1.156,0.156
			c0.516,0,0.907-0.156,1.176-0.469c0.268-0.312,0.402-0.763,0.402-1.352V66.744h1.328v11.312c0,0.989-0.25,1.756-0.75,2.301
			C168.395,80.901,167.676,81.174,166.739,81.174z"/>
		<path fill="#FFFFFF" d="M177.747,78.166l-0.258-1.219h-0.062c-0.427,0.537-0.853,0.9-1.277,1.09
			c-0.425,0.19-0.955,0.285-1.59,0.285c-0.849,0-1.515-0.219-1.996-0.656c-0.482-0.438-0.723-1.06-0.723-1.867
			c0-1.729,1.383-2.635,4.148-2.719l1.453-0.047v-0.531c0-0.672-0.145-1.168-0.434-1.488s-0.751-0.48-1.387-0.48
			c-0.714,0-1.521,0.219-2.422,0.656l-0.398-0.992c0.422-0.229,0.884-0.409,1.387-0.539c0.502-0.13,1.006-0.195,1.512-0.195
			c1.021,0,1.777,0.227,2.27,0.68s0.738,1.18,0.738,2.18v5.844H177.747z M174.817,77.252c0.807,0,1.441-0.221,1.902-0.664
			c0.461-0.442,0.691-1.062,0.691-1.859v-0.773l-1.297,0.055c-1.031,0.037-1.775,0.197-2.23,0.48
			c-0.456,0.284-0.684,0.726-0.684,1.324c0,0.469,0.142,0.826,0.426,1.07C173.909,77.13,174.306,77.252,174.817,77.252z"/>
		<path fill="#FFFFFF" d="M183.254,78.166l-3.25-8.562h1.391l1.844,5.078c0.417,1.188,0.661,1.958,0.734,2.312h0.062
			c0.057-0.276,0.238-0.848,0.543-1.715s0.988-2.759,2.051-5.676h1.391l-3.25,8.562H183.254z"/>
		<path fill="#FFFFFF" d="M194.661,78.166l-0.258-1.219h-0.062c-0.427,0.537-0.853,0.9-1.277,1.09
			c-0.425,0.19-0.955,0.285-1.59,0.285c-0.849,0-1.515-0.219-1.996-0.656c-0.482-0.438-0.723-1.06-0.723-1.867
			c0-1.729,1.383-2.635,4.148-2.719l1.453-0.047v-0.531c0-0.672-0.145-1.168-0.434-1.488s-0.751-0.48-1.387-0.48
			c-0.714,0-1.521,0.219-2.422,0.656l-0.398-0.992c0.422-0.229,0.884-0.409,1.387-0.539c0.502-0.13,1.006-0.195,1.512-0.195
			c1.021,0,1.777,0.227,2.27,0.68s0.738,1.18,0.738,2.18v5.844H194.661z M191.731,77.252c0.807,0,1.441-0.221,1.902-0.664
			c0.461-0.442,0.691-1.062,0.691-1.859v-0.773l-1.297,0.055c-1.031,0.037-1.775,0.197-2.23,0.48
			c-0.456,0.284-0.684,0.726-0.684,1.324c0,0.469,0.142,0.826,0.426,1.07C190.823,77.13,191.22,77.252,191.731,77.252z"/>
		<path fill="#FFFFFF" d="M203.816,75.83c0,0.797-0.297,1.412-0.891,1.844c-0.594,0.433-1.427,0.648-2.5,0.648
			c-1.136,0-2.021-0.18-2.656-0.539V76.58c0.411,0.208,0.853,0.373,1.324,0.492c0.471,0.12,0.926,0.18,1.363,0.18
			c0.677,0,1.198-0.108,1.562-0.324c0.365-0.216,0.547-0.545,0.547-0.988c0-0.333-0.145-0.618-0.434-0.855
			c-0.289-0.237-0.853-0.517-1.691-0.84c-0.797-0.297-1.363-0.556-1.699-0.777c-0.336-0.221-0.586-0.473-0.75-0.754
			s-0.246-0.617-0.246-1.008c0-0.698,0.284-1.249,0.852-1.652c0.567-0.403,1.346-0.605,2.335-0.605c0.922,0,1.823,0.188,2.703,0.562
			l-0.461,1.055c-0.859-0.354-1.638-0.531-2.336-0.531c-0.614,0-1.078,0.097-1.39,0.289c-0.312,0.193-0.469,0.458-0.469,0.797
			c0,0.229,0.059,0.425,0.176,0.586c0.117,0.162,0.306,0.315,0.566,0.461c0.26,0.146,0.76,0.357,1.5,0.633
			c1.016,0.37,1.702,0.742,2.059,1.117C203.639,74.791,203.816,75.263,203.816,75.83z"/>
		<path fill="#FFFFFF" d="M209.348,78.322c-1.239,0-2.199-0.381-2.879-1.145c-0.68-0.763-1.02-1.842-1.02-3.238
			c0-1.432,0.346-2.539,1.035-3.32c0.69-0.781,1.674-1.172,2.949-1.172c0.412,0,0.823,0.044,1.234,0.133
			c0.412,0.089,0.734,0.193,0.969,0.312l-0.398,1.102c-0.286-0.114-0.599-0.209-0.938-0.285c-0.338-0.075-0.638-0.113-0.898-0.113
			c-1.739,0-2.609,1.109-2.609,3.328c0,1.052,0.213,1.859,0.637,2.422c0.425,0.562,1.054,0.844,1.887,0.844
			c0.714,0,1.445-0.153,2.195-0.461v1.148C210.939,78.174,210.218,78.322,209.348,78.322z"/>
		<path fill="#FFFFFF" d="M217.449,69.447c0.381,0,0.722,0.031,1.023,0.094l-0.18,1.203c-0.354-0.078-0.666-0.117-0.938-0.117
			c-0.692,0-1.285,0.281-1.777,0.844s-0.738,1.263-0.738,2.102v4.594h-1.297v-8.562h1.07l0.148,1.586h0.062
			c0.318-0.557,0.701-0.987,1.148-1.289C216.421,69.599,216.913,69.447,217.449,69.447z"/>
		<path fill="#FFFFFF" d="M219.965,67.283c0-0.297,0.073-0.514,0.219-0.652c0.146-0.138,0.328-0.207,0.547-0.207
			c0.209,0,0.389,0.07,0.539,0.211c0.151,0.141,0.227,0.357,0.227,0.648c0,0.292-0.075,0.509-0.227,0.652
			c-0.15,0.144-0.33,0.215-0.539,0.215c-0.219,0-0.4-0.071-0.547-0.215C220.038,67.792,219.965,67.575,219.965,67.283z
			 M221.371,78.166h-1.297v-8.562h1.297V78.166z"/>
		<path fill="#FFFFFF" d="M228.105,78.322c-0.557,0-1.066-0.103-1.527-0.309s-0.848-0.522-1.16-0.949h-0.094
			c0.062,0.5,0.094,0.974,0.094,1.422v3.523h-1.297V69.604h1.055l0.18,1.172h0.062c0.334-0.469,0.722-0.807,1.164-1.016
			c0.443-0.208,0.951-0.312,1.523-0.312c1.136,0,2.012,0.388,2.629,1.164c0.617,0.776,0.926,1.865,0.926,3.266
			c0,1.406-0.313,2.499-0.941,3.277C230.092,77.933,229.221,78.322,228.105,78.322z M227.918,70.549
			c-0.875,0-1.508,0.242-1.898,0.727s-0.591,1.255-0.602,2.312v0.289c0,1.203,0.201,2.064,0.602,2.582
			c0.401,0.519,1.045,0.777,1.93,0.777c0.74,0,1.319-0.299,1.738-0.898c0.42-0.599,0.629-1.424,0.629-2.477
			c0-1.067-0.209-1.887-0.629-2.457C229.269,70.834,228.679,70.549,227.918,70.549z"/>
		<path fill="#FFFFFF" d="M236.691,77.252c0.229,0,0.451-0.017,0.664-0.051c0.214-0.034,0.383-0.069,0.508-0.105v0.992
			c-0.141,0.068-0.348,0.124-0.621,0.168c-0.273,0.044-0.52,0.066-0.738,0.066c-1.656,0-2.484-0.872-2.484-2.617v-5.094h-1.227
			v-0.625l1.227-0.539l0.547-1.828h0.75v1.984h2.484v1.008h-2.484v5.039c0,0.516,0.123,0.912,0.367,1.188
			C235.929,77.114,236.265,77.252,236.691,77.252z"/>
	</g>
	<g>
		<path fill="#FFFFFF" d="M182.399,157.418v4.75h-1.328v-11.422h3.133c1.401,0,2.436,0.268,3.105,0.805
			c0.669,0.536,1.004,1.344,1.004,2.422c0,1.51-0.766,2.531-2.297,3.062l3.102,5.133h-1.57l-2.766-4.75H182.399z M182.399,156.277
			h1.82c0.938,0,1.625-0.187,2.062-0.559c0.438-0.373,0.656-0.932,0.656-1.676c0-0.756-0.223-1.3-0.668-1.633
			c-0.445-0.334-1.16-0.5-2.145-0.5h-1.727V156.277z"/>
		<path fill="#FFFFFF" d="M194.383,162.324c-1.266,0-2.265-0.386-2.996-1.156c-0.732-0.771-1.098-1.842-1.098-3.211
			c0-1.381,0.34-2.477,1.02-3.289s1.592-1.219,2.738-1.219c1.073,0,1.922,0.353,2.547,1.059c0.625,0.705,0.938,1.637,0.938,2.793
			v0.82h-5.898c0.026,1.005,0.28,1.768,0.762,2.289c0.481,0.521,1.16,0.781,2.035,0.781c0.922,0,1.833-0.193,2.734-0.578v1.156
			c-0.458,0.197-0.892,0.34-1.301,0.426C195.455,162.281,194.961,162.324,194.383,162.324z M194.032,154.535
			c-0.688,0-1.236,0.224-1.645,0.672c-0.409,0.447-0.65,1.067-0.723,1.859h4.477c0-0.818-0.183-1.444-0.547-1.879
			C195.229,154.752,194.708,154.535,194.032,154.535z"/>
		<path fill="#FFFFFF" d="M205.57,161.02h-0.07c-0.599,0.869-1.494,1.305-2.688,1.305c-1.119,0-1.99-0.383-2.613-1.148
			s-0.934-1.854-0.934-3.266c0-1.412,0.312-2.508,0.938-3.289c0.625-0.781,1.495-1.172,2.609-1.172c1.162,0,2.053,0.422,2.672,1.266
			h0.102l-0.055-0.617l-0.031-0.602v-3.484h1.297v12.156h-1.055L205.57,161.02z M202.977,161.238c0.886,0,1.527-0.241,1.926-0.723
			c0.398-0.482,0.598-1.26,0.598-2.332v-0.273c0-1.214-0.201-2.08-0.605-2.598c-0.403-0.519-1.048-0.777-1.934-0.777
			c-0.76,0-1.342,0.295-1.746,0.887c-0.403,0.591-0.605,1.426-0.605,2.504c0,1.094,0.201,1.919,0.602,2.477
			C201.612,160.959,202.201,161.238,202.977,161.238z"/>
		<path fill="#FFFFFF" d="M210.766,153.605v5.555c0,0.697,0.159,1.219,0.477,1.562c0.318,0.344,0.815,0.516,1.492,0.516
			c0.896,0,1.551-0.245,1.965-0.734c0.414-0.49,0.621-1.289,0.621-2.398v-4.5h1.297v8.562h-1.07l-0.188-1.148h-0.07
			c-0.266,0.422-0.634,0.744-1.105,0.969c-0.471,0.223-1.009,0.336-1.613,0.336c-1.041,0-1.821-0.248-2.34-0.742
			c-0.518-0.495-0.777-1.287-0.777-2.375v-5.602H210.766z"/>
		<path fill="#FFFFFF" d="M221.43,157.785l-2.977-4.18h1.477l2.258,3.281l2.25-3.281h1.461l-2.977,4.18l3.133,4.383h-1.469
			l-2.398-3.469l-2.422,3.469h-1.469L221.43,157.785z"/>
	</g>
	<g>
		<path fill="#FFFFFF" d="M174.373,190.834h-1.312l-2.305-7.648c-0.109-0.339-0.232-0.766-0.367-1.281
			c-0.136-0.516-0.206-0.826-0.211-0.93c-0.115,0.688-0.297,1.439-0.547,2.258l-2.234,7.602h-1.312l-3.039-11.422h1.406l1.805,7.055
			c0.25,0.989,0.432,1.885,0.547,2.688c0.141-0.953,0.349-1.886,0.625-2.797l2.047-6.945h1.406l2.148,7.008
			c0.25,0.807,0.461,1.719,0.633,2.734c0.099-0.74,0.286-1.641,0.562-2.703l1.797-7.039h1.406L174.373,190.834z"/>
		<path fill="#FFFFFF" d="M186.091,186.545c0,1.396-0.352,2.485-1.055,3.27c-0.703,0.783-1.675,1.176-2.914,1.176
			c-0.766,0-1.445-0.18-2.039-0.539s-1.052-0.875-1.375-1.547c-0.323-0.672-0.484-1.459-0.484-2.359
			c0-1.396,0.349-2.483,1.047-3.262c0.698-0.779,1.667-1.168,2.906-1.168c1.198,0,2.149,0.398,2.855,1.195
			C185.738,184.107,186.091,185.186,186.091,186.545z M179.568,186.545c0,1.094,0.219,1.927,0.656,2.5
			c0.438,0.572,1.081,0.859,1.93,0.859c0.849,0,1.493-0.285,1.934-0.855c0.44-0.57,0.66-1.405,0.66-2.504
			c0-1.089-0.22-1.916-0.66-2.48c-0.44-0.565-1.09-0.848-1.949-0.848c-0.849,0-1.49,0.278-1.922,0.836
			C179.784,184.609,179.568,185.44,179.568,186.545z"/>
		<path fill="#FFFFFF" d="M192.271,182.115c0.38,0,0.721,0.031,1.023,0.094l-0.18,1.203c-0.354-0.078-0.667-0.117-0.938-0.117
			c-0.693,0-1.285,0.281-1.777,0.844s-0.738,1.263-0.738,2.102v4.594h-1.297v-8.562h1.07l0.148,1.586h0.062
			c0.317-0.558,0.7-0.987,1.148-1.289C191.242,182.266,191.734,182.115,192.271,182.115z"/>
		<path fill="#FFFFFF" d="M200.404,189.686h-0.07c-0.599,0.869-1.495,1.305-2.688,1.305c-1.12,0-1.991-0.383-2.613-1.148
			c-0.623-0.766-0.934-1.854-0.934-3.266c0-1.412,0.312-2.508,0.938-3.289s1.495-1.172,2.609-1.172c1.161,0,2.052,0.422,2.672,1.266
			h0.102l-0.055-0.617l-0.031-0.602v-3.484h1.297v12.156h-1.055L200.404,189.686z M197.81,189.904c0.885,0,1.527-0.241,1.926-0.723
			c0.398-0.482,0.598-1.26,0.598-2.332v-0.273c0-1.214-0.202-2.08-0.605-2.598c-0.404-0.519-1.048-0.777-1.934-0.777
			c-0.761,0-1.343,0.295-1.746,0.887c-0.404,0.591-0.605,1.426-0.605,2.504c0,1.094,0.2,1.919,0.602,2.477
			C196.445,189.625,197.034,189.904,197.81,189.904z"/>
		<path fill="#FFFFFF" d="M208.365,190.99c-0.559,0-1.066-0.104-1.527-0.309c-0.461-0.206-0.848-0.522-1.16-0.949h-0.094
			c0.062,0.5,0.094,0.974,0.094,1.422v3.523h-1.297v-12.406h1.055l0.18,1.172h0.062c0.332-0.469,0.721-0.808,1.164-1.016
			c0.441-0.209,0.949-0.312,1.523-0.312c1.135,0,2.012,0.388,2.629,1.164c0.617,0.775,0.926,1.864,0.926,3.266
			c0,1.406-0.314,2.498-0.941,3.277C210.35,190.601,209.479,190.99,208.365,190.99z M208.178,183.217
			c-0.875,0-1.508,0.242-1.898,0.727s-0.592,1.255-0.602,2.312v0.289c0,1.203,0.199,2.063,0.602,2.582
			c0.4,0.518,1.043,0.777,1.93,0.777c0.738,0,1.318-0.3,1.738-0.898c0.418-0.6,0.629-1.425,0.629-2.477
			c0-1.068-0.211-1.887-0.629-2.457C209.527,183.502,208.938,183.217,208.178,183.217z"/>
		<path fill="#FFFFFF" d="M218.092,182.115c0.379,0,0.721,0.031,1.023,0.094l-0.18,1.203c-0.355-0.078-0.668-0.117-0.938-0.117
			c-0.693,0-1.285,0.281-1.777,0.844s-0.738,1.263-0.738,2.102v4.594h-1.297v-8.562h1.07l0.148,1.586h0.062
			c0.316-0.558,0.699-0.987,1.148-1.289C217.062,182.266,217.555,182.115,218.092,182.115z"/>
		<path fill="#FFFFFF" d="M224.014,190.99c-1.266,0-2.266-0.386-2.996-1.156c-0.732-0.771-1.098-1.842-1.098-3.211
			c0-1.381,0.34-2.477,1.02-3.289s1.592-1.219,2.738-1.219c1.072,0,1.922,0.353,2.547,1.059c0.625,0.705,0.938,1.637,0.938,2.793
			v0.82h-5.898c0.025,1.005,0.279,1.768,0.762,2.289c0.48,0.521,1.16,0.781,2.035,0.781c0.922,0,1.832-0.193,2.734-0.578v1.156
			c-0.459,0.197-0.893,0.34-1.301,0.426C225.084,190.947,224.592,190.99,224.014,190.99z M223.662,183.201
			c-0.688,0-1.236,0.224-1.645,0.672c-0.41,0.447-0.65,1.067-0.723,1.859h4.477c0-0.818-0.184-1.444-0.547-1.879
			C224.859,183.418,224.338,183.201,223.662,183.201z"/>
		<path fill="#FFFFFF" d="M234.896,188.498c0,0.797-0.297,1.411-0.891,1.844c-0.594,0.432-1.428,0.648-2.5,0.648
			c-1.137,0-2.021-0.18-2.656-0.539v-1.203c0.41,0.208,0.852,0.372,1.324,0.492c0.471,0.119,0.926,0.18,1.363,0.18
			c0.676,0,1.197-0.108,1.562-0.324c0.363-0.217,0.547-0.546,0.547-0.988c0-0.334-0.145-0.619-0.434-0.855
			c-0.289-0.237-0.854-0.518-1.691-0.84c-0.797-0.297-1.363-0.557-1.699-0.777c-0.336-0.222-0.586-0.473-0.75-0.754
			s-0.246-0.617-0.246-1.008c0-0.698,0.283-1.249,0.852-1.652c0.566-0.404,1.346-0.605,2.336-0.605c0.922,0,1.822,0.188,2.703,0.562
			l-0.461,1.055c-0.859-0.354-1.639-0.531-2.336-0.531c-0.615,0-1.078,0.096-1.391,0.289c-0.312,0.192-0.469,0.458-0.469,0.797
			c0,0.229,0.059,0.424,0.176,0.586c0.117,0.161,0.305,0.314,0.566,0.461c0.26,0.146,0.76,0.356,1.5,0.633
			c1.016,0.369,1.701,0.742,2.059,1.117C234.717,187.459,234.896,187.93,234.896,188.498z"/>
		<path fill="#FFFFFF" d="M242.529,188.498c0,0.797-0.297,1.411-0.891,1.844c-0.594,0.432-1.428,0.648-2.5,0.648
			c-1.137,0-2.021-0.18-2.656-0.539v-1.203c0.41,0.208,0.852,0.372,1.324,0.492c0.471,0.119,0.926,0.18,1.363,0.18
			c0.676,0,1.197-0.108,1.562-0.324c0.363-0.217,0.547-0.546,0.547-0.988c0-0.334-0.145-0.619-0.434-0.855
			c-0.289-0.237-0.854-0.518-1.691-0.84c-0.797-0.297-1.363-0.557-1.699-0.777c-0.336-0.222-0.586-0.473-0.75-0.754
			s-0.246-0.617-0.246-1.008c0-0.698,0.283-1.249,0.852-1.652c0.566-0.404,1.346-0.605,2.336-0.605c0.922,0,1.822,0.188,2.703,0.562
			l-0.461,1.055c-0.859-0.354-1.639-0.531-2.336-0.531c-0.615,0-1.078,0.096-1.391,0.289c-0.312,0.192-0.469,0.458-0.469,0.797
			c0,0.229,0.059,0.424,0.176,0.586c0.117,0.161,0.305,0.314,0.566,0.461c0.26,0.146,0.76,0.356,1.5,0.633
			c1.016,0.369,1.701,0.742,2.059,1.117C242.35,187.459,242.529,187.93,242.529,188.498z"/>
	</g>
</g>
</svg>
