<?xml version="1.0" encoding="utf-8"?>
<!-- Generator: Adobe Illustrator 16.2.1, SVG Export Plug-In . SVG Version: 6.00 Build 0)  -->
<!DOCTYPE svg PUBLIC "-//W3C//DTD SVG 1.1//EN" "http://www.w3.org/Graphics/SVG/1.1/DTD/svg11.dtd">
<svg version="1.1" id="Layer_1" xmlns="http://www.w3.org/2000/svg" xmlns:xlink="http://www.w3.org/1999/xlink" x="0px" y="0px"
	 width="165px" height="68px" viewBox="0 0 165 68" enable-background="new 0 0 165 68" xml:space="preserve">
<path fill="#4E4E4E" stroke="#4E4E4E" stroke-miterlimit="10" d="M57.854,21.196c-0.718-0.19-4.033-0.733-4.888-0.855
	c-0.855-0.123-1.712-0.978-3.056-1.711c-1.345-0.734-1.956-3.422-1.956-3.422l-3.124-0.123l-0.055-0.61c0,0,0.122-1.1,0-1.838
	c-0.122-0.738-0.855-1.462-1.711-2.196c-0.856-0.733-2.689-1.588-2.689-1.588s-10.1-1.608-11.61-1.1
	c-3.115,1.045-3.179,5.133-3.179,5.133l-3.363-0.095l-0.306,2.444c-0.533,1.258-1.833,2.017-1.833,2.017l-1.587,0.279L9.454,30.974
	l4.277,0.367l8.556,29.7l5.011-3.299l16.912,0.605l0.566,0.006l0.01-0.039c0-0.164,0.048-0.32,0.12-0.467l7.937-30.911l5.747-5.19
	C58.59,21.324,59,21.5,57.854,21.196z M23.021,58.463l-7.428-27.611l6.453-7.053c0,0,3.977,32.713,4.052,32.338
	C26.082,56.215,23.033,58.611,23.021,58.463z M43.43,55.762l-14.856-0.449L24.672,22.45l25.36,2.223L43.43,55.762z"/>
<polygon fill="#4E4E4E" stroke="#4E4E4E" stroke-width="0.25" stroke-miterlimit="10" points="44.776,58.875 39.125,62 
	22.438,61.689 27.298,57.742 "/>
<path fill="#231F20" stroke="#FFFFFF" stroke-miterlimit="10" d="M25.651,10.114"/>
<polygon fill="#4E4E4E" stroke="#4E4E4E" stroke-miterlimit="10" points="31.631,7.621 30.593,6.691 32.242,3.392 33.963,6.325 
	33.532,7.743 "/>
<g enable-background="new    ">
	<path fill="#4E4E4E" d="M61.385,51.982V28.844h4.906v19.088h9.385v4.051H61.385L61.385,51.982z"/>
	<path fill="#4E4E4E" d="M93.021,51.982H79.696V28.844h13.326v4.021h-8.42v5.081h7.836v4.02h-7.836v5.967h8.42V51.982z"/>
	<path fill="#4E4E4E" d="M111.176,51.982H97.85V28.844h13.326v4.021h-8.42v5.081h7.834v4.02h-7.834v5.967h8.42V51.982z"/>
	<path fill="#4E4E4E" d="M120.909,43.104v8.879h-4.906V28.844h6.742c3.144,0,5.471,0.572,6.979,1.717
		c1.508,1.146,2.264,2.884,2.264,5.214c0,1.361-0.375,2.572-1.124,3.634s-1.81,1.892-3.181,2.491
		c3.48,5.203,5.75,8.562,6.805,10.082h-5.443l-5.523-8.879H120.909z M120.909,39.115h1.583c1.551,0,2.695-0.26,3.434-0.775
		c0.739-0.516,1.108-1.329,1.108-2.438c0-1.098-0.378-1.878-1.132-2.342c-0.754-0.465-1.924-0.697-3.506-0.697h-1.487V39.115z"/>
	<path fill="#4E4E4E" d="M144.602,38.371l4.828-9.527h5.285l-7.676,14.133v9.006h-4.875v-8.847l-7.676-14.292h5.318L144.602,38.371z
		"/>
</g>
<path fill="#4E4E4E" stroke="#4E4E4E" stroke-miterlimit="10" d="M32.868,56.041c-2.921-6.188-1.203-6.186-0.171-8.078
	c1.031-1.891,3.089-8.076,3.089-8.076s0.253,5.586,2.711,8.076c2.964,3.006,0.983,5.83,0.901,6.703
	c-0.128,1.375-2.062,1.375-2.062,1.375H32.868z"/>
</svg>
